<svg xmlns="http://www.w3.org/2000/svg" width="1600" height="900" viewBox="0 0 1600 900">
  <defs><linearGradient id="h8" x2="1"><stop stop-color="#edf9f7"/><stop offset="1" stop-color="#fff8e3"/></linearGradient><filter id="s8"><feDropShadow dy="5" stdDeviation="8" flood-opacity=".13"/></filter></defs>
  <style>text{font-family:Arial,sans-serif;fill:#263737}.m{fill:#768989}.t{font-size:15px}.l{font-size:18px;font-weight:700}.v{font-size:34px;font-weight:800}.h{font-size:30px;font-weight:800}.c{fill:#fff;stroke:#dee9e7;stroke-width:2}.g{stroke:#e6eeec}.teal{fill:#398f87}.blue{fill:#5b8fc0}.gold{fill:#e4b842}.violet{fill:#8c78c7}</style>
  <rect width="1600" height="900" fill="#f4f7f6"/><rect x="34" y="30" width="1532" height="76" rx="18" fill="url(#h8)" stroke="#e0e8e6" filter="url(#s8)"/><circle cx="74" cy="68" r="20" fill="#398f87"/><path d="M62 75V61h7v14m5 0V55h7v20" fill="#fff"/><text x="112" y="68" class="h">Platform Users &amp; Revenue Monitoring</text><text x="112" y="91" class="m t">Cross-platform performance · Demo environment</text><rect x="1294" y="49" width="242" height="38" rx="19" fill="#36514e"/><text x="1322" y="74" class="t" fill="#fff">DEMO · SYNTHETIC DATA</text>
  <g filter="url(#s8)"><rect x="34" y="128" width="236" height="124" rx="16" class="c"/><rect x="286" y="128" width="236" height="124" rx="16" class="c"/><rect x="538" y="128" width="236" height="124" rx="16" class="c"/><rect x="790" y="128" width="236" height="124" rx="16" class="c"/><rect x="1042" y="128" width="236" height="124" rx="16" class="c"/><rect x="1294" y="128" width="272" height="124" rx="16" class="c"/></g><g class="m t"><text x="56" y="161">TOTAL USERS</text><text x="308" y="161">ACTIVE USERS</text><text x="560" y="161">PAID USERS</text><text x="812" y="161">NET REVENUE</text><text x="1064" y="161">ARPU</text><text x="1316" y="161">PAID CONVERSION</text></g><g class="v"><text x="56" y="208">82.4K</text><text x="308" y="208">51.8K</text><text x="560" y="208">9.7K</text><text x="812" y="208">Rp3.18B</text><text x="1064" y="208">Rp61K</text><text x="1316" y="208">11.8%</text></g><g class="t teal"><text x="56" y="236">▲ 10.2%</text><text x="308" y="236">▲ 8.7%</text><text x="560" y="236">▲ 13.4%</text><text x="812" y="236">▲ 16.1%</text><text x="1064" y="236">▲ 4.2%</text><text x="1316" y="236">▲ 1.4 pts</text></g>
  <rect x="34" y="274" width="514" height="270" rx="18" class="c" filter="url(#s8)"/><text x="58" y="312" class="l">Monthly active users</text><g class="g"><path d="M84 366H520M84 414H520M84 462H520M84 510H520"/></g><path d="M84 486C127 463 155 472 197 438S266 451 307 408S379 426 420 379S480 394 520 351" fill="none" stroke="#398f87" stroke-width="7"/><path d="M84 486C127 463 155 472 197 438S266 451 307 408S379 426 420 379S480 394 520 351L520 510H84Z" fill="#398f87" opacity=".12"/>
  <rect x="566" y="274" width="514" height="270" rx="18" class="c" filter="url(#s8)"/><text x="590" y="312" class="l">Revenue by platform</text><g class="m t"><text x="590" y="368">Alpha Learn</text><text x="590" y="419">Beta Prep</text><text x="590" y="470">Gamma Class</text><text x="590" y="521">Delta Mentor</text></g><g fill="#e6eeec"><rect x="710" y="352" width="334" height="23" rx="11"/><rect x="710" y="403" width="334" height="23" rx="11"/><rect x="710" y="454" width="334" height="23" rx="11"/><rect x="710" y="505" width="334" height="23" rx="11"/></g><g class="blue"><rect x="710" y="352" width="292" height="23" rx="11"/><rect x="710" y="403" width="231" height="23" rx="11"/><rect x="710" y="454" width="178" height="23" rx="11"/><rect x="710" y="505" width="108" height="23" rx="11"/></g>
  <rect x="1098" y="274" width="468" height="270" rx="18" class="c" filter="url(#s8)"/><text x="1122" y="312" class="l">Target attainment</text><path d="M1190 492a145 145 0 0 1 290 0" fill="none" stroke="#e5ecea" stroke-width="38"/><path d="M1190 492a145 145 0 0 1 248-102" fill="none" stroke="#398f87" stroke-width="38"/><text x="1286" y="459" class="v">106%</text><text x="1260" y="489" class="m t">Rp3.18B / Rp3.00B</text>
  <rect x="34" y="562" width="392" height="304" rx="18" class="c" filter="url(#s8)"/><text x="58" y="600" class="l">User mix</text><circle cx="226" cy="726" r="84" fill="none" stroke="#e4ecea" stroke-width="32"/><circle cx="226" cy="726" r="84" fill="none" stroke="#398f87" stroke-width="32" stroke-dasharray="272 528" transform="rotate(-90 226 726)"/><circle cx="226" cy="726" r="84" fill="none" stroke="#e4b842" stroke-width="32" stroke-dasharray="164 528" stroke-dashoffset="-272" transform="rotate(-90 226 726)"/><circle cx="226" cy="726" r="84" fill="none" stroke="#8c78c7" stroke-width="32" stroke-dasharray="92 528" stroke-dashoffset="-436" transform="rotate(-90 226 726)"/><text x="190" y="733" class="v">82.4K</text><g class="t"><text x="58" y="838" class="teal">● Active</text><text x="154" y="838" class="gold">● New</text><text x="238" y="838" class="violet">● Returning</text></g>
  <rect x="444" y="562" width="1122" height="304" rx="18" class="c" filter="url(#s8)"/><text x="468" y="600" class="l">Platform scorecard</text><g class="m t"><text x="468" y="646">PLATFORM</text><text x="720" y="646">USERS</text><text x="880" y="646">PAID</text><text x="1038" y="646">REVENUE</text><text x="1238" y="646">GROWTH</text><text x="1410" y="646">ARPU</text></g><g class="t"><text x="468" y="696">Alpha Learn</text><text x="720" y="696">31.8K</text><text x="880" y="696">4.2K</text><text x="1038" y="696">Rp1.18B</text><text x="1238" y="696" class="teal">+18.2%</text><text x="1410" y="696">Rp74K</text><text x="468" y="746">Beta Prep</text><text x="720" y="746">23.6K</text><text x="880" y="746">2.8K</text><text x="1038" y="746">Rp886M</text><text x="1238" y="746" class="teal">+13.6%</text><text x="1410" y="746">Rp62K</text><text x="468" y="796">Gamma Class</text><text x="720" y="796">17.4K</text><text x="880" y="796">1.9K</text><text x="1038" y="796">Rp672M</text><text x="1238" y="796" class="teal">+10.4%</text><text x="1410" y="796">Rp55K</text><text x="468" y="846">Delta Mentor</text><text x="720" y="846">9.6K</text><text x="880" y="846">0.8K</text><text x="1038" y="846">Rp442M</text><text x="1238" y="846" class="gold">+6.8%</text><text x="1410" y="846">Rp46K</text></g><g class="g"><path d="M468 662H1538M468 713H1538M468 763H1538M468 813H1538"/></g>
</svg>
