<svg xmlns="http://www.w3.org/2000/svg" width="1600" height="900" viewBox="0 0 1600 900">
  <defs><linearGradient id="h10" x2="1"><stop stop-color="#fff9e4"/><stop offset="1" stop-color="#edf8f6"/></linearGradient><filter id="s10"><feDropShadow dy="5" stdDeviation="8" flood-opacity=".13"/></filter></defs>
  <style>text{font-family:Arial,sans-serif;fill:#293937}.m{fill:#788986}.t{font-size:15px}.l{font-size:18px;font-weight:700}.v{font-size:34px;font-weight:800}.h{font-size:30px;font-weight:800}.c{fill:#fff;stroke:#dfe9e6;stroke-width:2}.g{stroke:#e6eeec}.teal{fill:#3e8d86}.blue{fill:#638fb0}.gold{fill:#dfb647}.red{fill:#d96e71}.violet{fill:#8d79c2}</style>
  <rect width="1600" height="900" fill="#f4f7f6"/><rect x="34" y="30" width="1532" height="76" rx="18" fill="url(#h10)" stroke="#e1e8e6" filter="url(#s10)"/><circle cx="74" cy="68" r="20" fill="#dfb647"/><path d="M62 68h24M68 59v18M80 59v18" stroke="#fff" stroke-width="4"/><text x="112" y="68" class="h">Revenue &amp; Payment Transactions Analysis</text><text x="112" y="91" class="m t">Payment health, channel mix, and transaction quality</text><rect x="1294" y="49" width="242" height="38" rx="19" fill="#46534d"/><text x="1322" y="74" class="t" fill="#fff">DEMO · SYNTHETIC DATA</text>
  <g filter="url(#s10)"><rect x="34" y="128" width="236" height="124" rx="16" class="c"/><rect x="286" y="128" width="236" height="124" rx="16" class="c"/><rect x="538" y="128" width="236" height="124" rx="16" class="c"/><rect x="790" y="128" width="236" height="124" rx="16" class="c"/><rect x="1042" y="128" width="236" height="124" rx="16" class="c"/><rect x="1294" y="128" width="272" height="124" rx="16" class="c"/></g><g class="m t"><text x="56" y="161">GROSS PAYMENT</text><text x="308" y="161">NET REVENUE</text><text x="560" y="161">TRANSACTIONS</text><text x="812" y="161">SUCCESS RATE</text><text x="1064" y="161">REFUND RATE</text><text x="1316" y="161">AVG. TICKET</text></g><g class="v"><text x="56" y="208">Rp5.46B</text><text x="308" y="208">Rp5.12B</text><text x="560" y="208">28,640</text><text x="812" y="208">96.8%</text><text x="1064" y="208">1.4%</text><text x="1316" y="208">Rp191K</text></g><g class="t teal"><text x="56" y="236">▲ 15.2%</text><text x="308" y="236">▲ 14.8%</text><text x="560" y="236">▲ 12.4%</text><text x="812" y="236">▲ 1.1 pts</text><text x="1064" y="236">▼ 0.3 pt</text><text x="1316" y="236">▲ 2.6%</text></g>
  <rect x="34" y="274" width="620" height="272" rx="18" class="c" filter="url(#s10)"/><text x="58" y="312" class="l">Daily payment volume</text><g class="g"><path d="M84 364H626M84 412H626M84 460H626M84 508H626"/></g><path d="M84 487C125 468 153 477 194 441S267 456 308 415S382 433 423 390S500 409 626 346" fill="none" stroke="#dfb647" stroke-width="7"/><path d="M84 501C130 493 162 482 202 485S274 468 316 474S389 451 431 459S510 437 626 443" fill="none" stroke="#3e8d86" stroke-width="5"/>
  <rect x="672" y="274" width="430" height="272" rx="18" class="c" filter="url(#s10)"/><text x="696" y="312" class="l">Payment method mix</text><circle cx="887" cy="423" r="82" fill="none" stroke="#e5ecea" stroke-width="31"/><circle cx="887" cy="423" r="82" fill="none" stroke="#3e8d86" stroke-width="31" stroke-dasharray="216 515" transform="rotate(-90 887 423)"/><circle cx="887" cy="423" r="82" fill="none" stroke="#638fb0" stroke-width="31" stroke-dasharray="145 515" stroke-dashoffset="-216" transform="rotate(-90 887 423)"/><circle cx="887" cy="423" r="82" fill="none" stroke="#dfb647" stroke-width="31" stroke-dasharray="98 515" stroke-dashoffset="-361" transform="rotate(-90 887 423)"/><circle cx="887" cy="423" r="82" fill="none" stroke="#8d79c2" stroke-width="31" stroke-dasharray="56 515" stroke-dashoffset="-459" transform="rotate(-90 887 423)"/><text x="842" y="430" class="v">28.6K</text><g class="t"><text x="704" y="527" class="teal">● VA</text><text x="775" y="527" class="blue">● E-wallet</text><text x="890" y="527" class="gold">● Card</text><text x="973" y="527" class="violet">● Retail</text></g>
  <rect x="1120" y="274" width="446" height="272" rx="18" class="c" filter="url(#s10)"/><text x="1144" y="312" class="l">Settlement status</text><g class="m t"><text x="1144" y="368">Settled</text><text x="1144" y="421">Pending</text><text x="1144" y="474">Failed</text><text x="1144" y="527">Refunded</text></g><g fill="#e5ecea"><rect x="1244" y="352" width="286" height="23" rx="11"/><rect x="1244" y="405" width="286" height="23" rx="11"/><rect x="1244" y="458" width="286" height="23" rx="11"/><rect x="1244" y="511" width="286" height="23" rx="11"/></g><rect x="1244" y="352" width="271" height="23" rx="11" class="teal"/><rect x="1244" y="405" width="76" height="23" rx="11" class="gold"/><rect x="1244" y="458" width="48" height="23" rx="11" class="red"/><rect x="1244" y="511" width="34" height="23" rx="11" class="violet"/>
  <rect x="34" y="564" width="482" height="302" rx="18" class="c" filter="url(#s10)"/><text x="58" y="602" class="l">Revenue by product</text><rect x="58" y="634" width="194" height="92" rx="8" class="teal"/><rect x="260" y="634" width="224" height="92" rx="8" class="gold"/><rect x="58" y="734" width="266" height="100" rx="8" class="blue"/><rect x="332" y="734" width="152" height="100" rx="8" class="violet"/><g class="t" fill="#fff"><text x="78" y="663" fill="#fff">Premium Plan</text><text x="78" y="706" class="v" fill="#fff">34%</text><text x="280" y="663" fill="#fff">Practice Pack</text><text x="280" y="706" class="v" fill="#fff">29%</text><text x="78" y="763" fill="#fff">Live Class</text><text x="78" y="811" class="v" fill="#fff">27%</text><text x="352" y="763" fill="#fff">Mentoring</text><text x="352" y="811" class="v" fill="#fff">10%</text></g>
  <rect x="534" y="564" width="1032" height="302" rx="18" class="c" filter="url(#s10)"/><text x="558" y="602" class="l">Transaction exception monitor</text><g class="m t"><text x="558" y="646">ISSUE TYPE</text><text x="858" y="646">COUNT</text><text x="1020" y="646">VALUE</text><text x="1200" y="646">SLA</text><text x="1380" y="646">STATUS</text></g><g class="t"><text x="558" y="696">Expired virtual account</text><text x="858" y="696">284</text><text x="1020" y="696">Rp42.8M</text><text x="1200" y="696">2h 14m</text><text x="1380" y="696" class="gold">Watch</text><text x="558" y="746">Duplicate attempt</text><text x="858" y="746">126</text><text x="1020" y="746">Rp18.6M</text><text x="1200" y="746">1h 32m</text><text x="1380" y="746" class="teal">Normal</text><text x="558" y="796">Gateway timeout</text><text x="858" y="796">72</text><text x="1020" y="796">Rp11.2M</text><text x="1200" y="796">42m</text><text x="1380" y="796" class="teal">Resolved</text><text x="558" y="846">Refund request</text><text x="858" y="846">48</text><text x="1020" y="846">Rp8.4M</text><text x="1200" y="846">4h 05m</text><text x="1380" y="846" class="red">Action</text></g><g class="g"><path d="M558 662H1538M558 713H1538M558 763H1538M558 813H1538"/></g>
</svg>
