<svg xmlns="http://www.w3.org/2000/svg" width="1600" height="900" viewBox="0 0 1600 900">
  <defs><linearGradient id="bg2" x2="1" y2="1"><stop stop-color="#101417"/><stop offset="1" stop-color="#1c201f"/></linearGradient><filter id="s"><feDropShadow dy="7" stdDeviation="9" flood-opacity=".28"/></filter></defs>
  <style>text{font-family:Arial,sans-serif;fill:#f3f1e8}.m{fill:#a9aaa3}.t{font-size:15px}.l{font-size:18px;font-weight:700}.v{font-size:35px;font-weight:800}.h{font-size:30px;font-weight:800}.c{fill:#202725;stroke:#39433e;stroke-width:2}.g{stroke:#3a433f;stroke-width:1}.y{fill:#e9cb56}.b{fill:#65b9cb}.o{fill:#e88c59}.gr{fill:#73ae84}</style>
  <rect width="1600" height="900" fill="url(#bg2)"/><rect x="34" y="30" width="1532" height="76" rx="18" class="c" filter="url(#s)"/><circle cx="72" cy="68" r="20" fill="#e9cb56"/><path d="M62 68h20M72 58v20" stroke="#111614" stroke-width="4"/><text x="108" y="68" class="h">JadiPCPM User &amp; Revenue Overview</text><text x="108" y="91" class="m t">Growth, acquisition, and monetization · Demo workspace</text><rect x="1302" y="49" width="234" height="38" rx="19" fill="#303a35"/><text x="1331" y="74" class="t">DEMO · SYNTHETIC DATA</text>
  <g filter="url(#s)"><rect x="34" y="128" width="236" height="124" rx="16" class="c"/><rect x="286" y="128" width="236" height="124" rx="16" class="c"/><rect x="538" y="128" width="236" height="124" rx="16" class="c"/><rect x="790" y="128" width="236" height="124" rx="16" class="c"/><rect x="1042" y="128" width="236" height="124" rx="16" class="c"/><rect x="1294" y="128" width="272" height="124" rx="16" class="c"/></g>
  <g class="m t"><text x="56" y="161">NEW USERS</text><text x="308" y="161">ACTIVE USERS</text><text x="560" y="161">PAID USERS</text><text x="812" y="161">NET REVENUE</text><text x="1064" y="161">ARPU</text><text x="1316" y="161">CHURN RATE</text></g><g class="v"><text x="56" y="208">12,480</text><text x="308" y="208">8,920</text><text x="560" y="208">1,846</text><text x="812" y="208">Rp736M</text><text x="1064" y="208">Rp82K</text><text x="1316" y="208">3.2%</text></g><g class="t gr"><text x="56" y="236">▲ 9.8%</text><text x="308" y="236">▲ 7.2%</text><text x="560" y="236">▲ 12.1%</text><text x="812" y="236">▲ 10.4%</text><text x="1064" y="236">▲ 2.9%</text><text x="1316" y="236">▼ 0.6 pt</text></g>
  <rect x="34" y="274" width="720" height="266" rx="18" class="c"/><text x="58" y="312" class="l">Acquisition &amp; revenue trend</text><text x="58" y="337" class="m t">Weekly indexed growth</text><g class="g"><path d="M80 382H724M80 429H724M80 476H724M80 517H724"/></g><path d="M80 487C132 452 165 467 213 428S301 445 355 397S438 411 490 368S586 399 638 348S690 362 724 322" fill="none" stroke="#e9cb56" stroke-width="7"/><path d="M80 506C131 498 168 481 217 486S301 460 354 467S438 438 490 446S583 413 637 421S691 396 724 402" fill="none" stroke="#65b9cb" stroke-width="6"/>
  <rect x="772" y="274" width="414" height="266" rx="18" class="c"/><text x="796" y="312" class="l">Conversion funnel</text><text x="796" y="337" class="m t">Last 30 days</text><path d="M820 367H1140L1104 407H856Z" class="b"/><path d="M856 418H1104L1072 458H888Z" class="y"/><path d="M888 469H1072L1038 509H922Z" class="o"/><g text-anchor="middle" class="t"><text x="980" y="394">18,420 VISITS</text><text x="980" y="445">6,870 SIGN-UPS</text><text x="980" y="496">1,846 PAID</text></g>
  <rect x="1204" y="274" width="362" height="266" rx="18" class="c"/><text x="1228" y="312" class="l">Revenue mix</text><circle cx="1386" cy="425" r="76" fill="none" stroke="#39433e" stroke-width="30"/><circle cx="1386" cy="425" r="76" fill="none" stroke="#e9cb56" stroke-width="30" stroke-dasharray="205 477" transform="rotate(-90 1386 425)"/><circle cx="1386" cy="425" r="76" fill="none" stroke="#65b9cb" stroke-width="30" stroke-dasharray="134 477" stroke-dashoffset="-205" transform="rotate(-90 1386 425)"/><circle cx="1386" cy="425" r="76" fill="none" stroke="#e88c59" stroke-width="30" stroke-dasharray="86 477" stroke-dashoffset="-339" transform="rotate(-90 1386 425)"/><text x="1353" y="431" class="v">736M</text>
  <rect x="34" y="558" width="482" height="308" rx="18" class="c"/><text x="58" y="596" class="l">Plan contribution</text><rect x="58" y="626" width="188" height="98" rx="8" class="b"/><rect x="254" y="626" width="230" height="98" rx="8" class="y"/><rect x="58" y="732" width="274" height="102" rx="8" class="o"/><rect x="340" y="732" width="144" height="102" rx="8" class="gr"/><g class="t"><text x="78" y="656">Starter</text><text x="78" y="701" class="v">24%</text><text x="274" y="656">Intensive</text><text x="274" y="701" class="v">32%</text><text x="78" y="762">Premium</text><text x="78" y="808" class="v">35%</text><text x="360" y="762">Mentoring</text><text x="360" y="808" class="v">9%</text></g>
  <rect x="534" y="558" width="506" height="308" rx="18" class="c"/><text x="558" y="596" class="l">Users by source</text><g class="m t"><text x="558" y="649">Organic search</text><text x="558" y="701">Referral</text><text x="558" y="753">Social</text><text x="558" y="805">Campaign</text></g><g fill="#333d38"><rect x="700" y="633" width="300" height="24" rx="12"/><rect x="700" y="685" width="300" height="24" rx="12"/><rect x="700" y="737" width="300" height="24" rx="12"/><rect x="700" y="789" width="300" height="24" rx="12"/></g><g class="gr"><rect x="700" y="633" width="266" height="24" rx="12"/><rect x="700" y="685" width="212" height="24" rx="12"/><rect x="700" y="737" width="159" height="24" rx="12"/><rect x="700" y="789" width="103" height="24" rx="12"/></g>
  <rect x="1058" y="558" width="508" height="308" rx="18" class="c"/><text x="1082" y="596" class="l">Top regions</text><g class="m t"><text x="1082" y="642">Region</text><text x="1280" y="642">Users</text><text x="1404" y="642">Revenue</text></g><g class="t"><text x="1082" y="687">West Metro</text><text x="1280" y="687">2,184</text><text x="1404" y="687">Rp164M</text><text x="1082" y="735">Central City</text><text x="1280" y="735">1,920</text><text x="1404" y="735">Rp148M</text><text x="1082" y="783">East Valley</text><text x="1280" y="783">1,528</text><text x="1404" y="783">Rp119M</text><text x="1082" y="831">North Coast</text><text x="1280" y="831">1,106</text><text x="1404" y="831">Rp87M</text></g><g class="g"><path d="M1082 657H1538M1082 704H1538M1082 752H1538M1082 800H1538"/></g>
</svg>
