<svg xmlns="http://www.w3.org/2000/svg" width="1600" height="1200" viewBox="0 0 1600 1200">
  <defs><linearGradient id="hdr" x2="1"><stop stop-color="#0d5960"/><stop offset="1" stop-color="#39a99b"/></linearGradient><filter id="s"><feDropShadow dy="5" stdDeviation="8" flood-color="#173f43" flood-opacity=".14"/></filter></defs>
  <style>text{font-family:Arial,sans-serif;fill:#173136}.m{fill:#71858a}.t{font-size:16px}.l{font-size:21px;font-weight:700}.v{font-size:38px;font-weight:800}.h{font-size:32px;font-weight:800}.c{fill:#fff;stroke:#d7e5e7;stroke-width:2}.g{stroke:#e1ecee}.a{fill:#2b9e91}.b{fill:#4c91a7}.lt{fill:#75c9ba}.gold{fill:#eeb94e}</style>
  <rect width="1600" height="1200" fill="#f1f7f7"/><rect width="1600" height="92" fill="url(#hdr)"/><circle cx="58" cy="46" r="23" fill="#fff"/><path d="M44 50h9l7-16 8 22 7-12h8" fill="none" stroke="#2b9e91" stroke-width="4"/><text x="96" y="43" class="h" fill="#fff">Executive Sales Summary</text><text x="96" y="69" class="t" fill="#d8fffb">Decision-ready commercial health · Demo workspace</text><rect x="1278" y="25" width="268" height="42" rx="21" fill="#084a50"/><text x="1311" y="52" class="t" fill="#fff">DEMO · SYNTHETIC DATA</text>
  <rect x="36" y="116" width="1528" height="62" rx="14" class="c"/><g class="t"><text x="62" y="154" class="m">Period</text><text x="126" y="154">Q2 2026 ▾</text><text x="360" y="154" class="m">Business unit</text><text x="474" y="154">All Units ▾</text><text x="774" y="154" class="m">Scenario</text><text x="850" y="154">Actual vs Plan ▾</text><text x="1190" y="154" class="m">Updated</text><text x="1268" y="154">17 Jul 2026 · 08:30</text></g>
  <g filter="url(#s)"><rect x="36" y="202" width="284" height="150" rx="18" class="c"/><rect x="338" y="202" width="284" height="150" rx="18" class="c"/><rect x="640" y="202" width="284" height="150" rx="18" class="c"/><rect x="942" y="202" width="284" height="150" rx="18" class="c"/><rect x="1244" y="202" width="320" height="150" rx="18" class="c"/></g><g class="m t"><text x="60" y="239">NET REVENUE</text><text x="362" y="239">GROSS PROFIT</text><text x="664" y="239">ACTIVE CUSTOMERS</text><text x="966" y="239">RETENTION</text><text x="1268" y="239">FORECAST ACCURACY</text></g><g class="v"><text x="60" y="290">Rp8.96B</text><text x="362" y="290">Rp3.84B</text><text x="664" y="290">26,480</text><text x="966" y="290">81.2%</text><text x="1268" y="290">94.6%</text></g><g class="t a"><text x="60" y="324">▲ 14.2% YoY</text><text x="362" y="324">▲ 16.8% YoY</text><text x="664" y="324">▲ 8.3% YoY</text><text x="966" y="324">▲ 2.1 pts</text><text x="1268" y="324">▲ 1.8 pts</text></g>
  <rect x="36" y="376" width="918" height="380" rx="18" class="c" filter="url(#s)"/><text x="62" y="418" class="l">Revenue run-rate</text><text x="62" y="446" class="m t">Actual and forecast · Rp billion</text><g class="g"><path d="M94 505H926M94 568H926M94 631H926M94 694H926"/></g><path d="M94 666C150 636 192 649 248 605S350 622 405 570S510 590 566 534S671 554 727 499S846 524 926 467" fill="none" stroke="#2b9e91" stroke-width="8"/><path d="M94 687C158 672 199 656 252 664S358 636 410 642S518 610 570 619S680 585 733 594S850 562 926 571" fill="none" stroke="#eeb94e" stroke-width="5" stroke-dasharray="12 10"/><g class="m t"><text x="96" y="726">Jan</text><text x="256" y="726">Feb</text><text x="416" y="726">Mar</text><text x="576" y="726">Apr</text><text x="736" y="726">May</text><text x="886" y="726">Jun</text></g>
  <rect x="972" y="376" width="592" height="380" rx="18" class="c" filter="url(#s)"/><text x="998" y="418" class="l">Revenue composition</text><circle cx="1268" cy="570" r="126" fill="none" stroke="#e5eeee" stroke-width="48"/><circle cx="1268" cy="570" r="126" fill="none" stroke="#2b9e91" stroke-width="48" stroke-dasharray="360 792" transform="rotate(-90 1268 570)"/><circle cx="1268" cy="570" r="126" fill="none" stroke="#4c91a7" stroke-width="48" stroke-dasharray="222 792" stroke-dashoffset="-360" transform="rotate(-90 1268 570)"/><circle cx="1268" cy="570" r="126" fill="none" stroke="#eeb94e" stroke-width="48" stroke-dasharray="138 792" stroke-dashoffset="-582" transform="rotate(-90 1268 570)"/><text x="1201" y="578" class="v">Rp8.96B</text><g class="t"><text x="1006" y="715" class="a">● Subscription 45%</text><text x="1194" y="715" class="b">● Courses 28%</text><text x="1360" y="715" class="gold">● Services 17%</text></g>
  <rect x="36" y="780" width="500" height="384" rx="18" class="c" filter="url(#s)"/><text x="62" y="822" class="l">Customer growth</text><g class="m t"><text x="62" y="877">New customers</text><text x="62" y="943">Returning</text><text x="62" y="1009">Reactivated</text><text x="62" y="1075">At risk</text></g><g fill="#e3eeee"><rect x="210" y="858" width="284" height="28" rx="14"/><rect x="210" y="924" width="284" height="28" rx="14"/><rect x="210" y="990" width="284" height="28" rx="14"/><rect x="210" y="1056" width="284" height="28" rx="14"/></g><g class="a"><rect x="210" y="858" width="250" height="28" rx="14"/><rect x="210" y="924" width="218" height="28" rx="14"/><rect x="210" y="990" width="154" height="28" rx="14"/></g><rect x="210" y="1056" width="88" height="28" rx="14" fill="#e76d78"/><g class="t"><text x="450" y="879">5,240</text><text x="418" y="945">4,580</text><text x="354" y="1011">2,960</text><text x="310" y="1077">1,180</text></g>
  <rect x="554" y="780" width="1010" height="384" rx="18" class="c" filter="url(#s)"/><text x="580" y="822" class="l">Business unit performance</text><g class="m t"><text x="580" y="873">UNIT</text><text x="860" y="873">REVENUE</text><text x="1060" y="873">GROWTH</text><text x="1240" y="873">MARGIN</text><text x="1400" y="873">STATUS</text></g><g class="t"><text x="580" y="928">Learning Products</text><text x="860" y="928">Rp3.42B</text><text x="1060" y="928">+18.4%</text><text x="1240" y="928">46.2%</text><text x="1400" y="928" class="a">Ahead</text><text x="580" y="986">Premium Services</text><text x="860" y="986">Rp2.68B</text><text x="1060" y="986">+12.8%</text><text x="1240" y="986">41.7%</text><text x="1400" y="986" class="a">On plan</text><text x="580" y="1044">Assessment</text><text x="860" y="1044">Rp1.74B</text><text x="1060" y="1044">+9.6%</text><text x="1240" y="1044">39.8%</text><text x="1400" y="1044" class="gold">Watch</text><text x="580" y="1102">Partner Programs</text><text x="860" y="1102">Rp1.12B</text><text x="1060" y="1102">+7.1%</text><text x="1240" y="1102">35.4%</text><text x="1400" y="1102" class="a">On plan</text></g><g class="g"><path d="M580 889H1538M580 947H1538M580 1005H1538M580 1063H1538M580 1121H1538"/></g>
</svg>
