<svg xmlns="http://www.w3.org/2000/svg" width="1600" height="1200" viewBox="0 0 1600 1200">
  <defs><linearGradient id="top" x2="1"><stop stop-color="#17685f"/><stop offset="1" stop-color="#20a89a"/></linearGradient><filter id="sh"><feDropShadow dy="5" stdDeviation="8" flood-color="#143f3a" flood-opacity=".14"/></filter></defs>
  <style>text{font-family:Arial,sans-serif;fill:#19322f}.m{fill:#6e8581}.t{font-size:16px}.l{font-size:21px;font-weight:700}.v{font-size:38px;font-weight:800}.h{font-size:32px;font-weight:800}.c{fill:#fff;stroke:#d5e6e2;stroke-width:2}.g{stroke:#e1ece9}.teal{fill:#20a89a}.green{fill:#5abb7c}.red{fill:#e76d78}.gold{fill:#efb947}</style>
  <rect width="1600" height="1200" fill="#eff6f4"/><rect width="1600" height="92" fill="url(#top)"/><circle cx="58" cy="46" r="23" fill="#fff" opacity=".95"/><path d="M46 50l9-10 8 7 10-15" fill="none" stroke="#20a89a" stroke-width="5"/><text x="96" y="43" class="h" fill="#fff">Sales Performance Dashboard</text><text x="96" y="69" class="t" fill="#d9fffa">Regional sales operations · Jan–Jun 2026</text><rect x="1278" y="25" width="268" height="42" rx="21" fill="#0c554e"/><text x="1311" y="52" class="t" fill="#fff">DEMO · SYNTHETIC DATA</text>
  <rect x="36" y="116" width="1528" height="62" rx="14" class="c"/><g class="t"><text x="62" y="154" class="m">Period</text><text x="126" y="154">Jan–Jun 2026 ▾</text><text x="360" y="154" class="m">Region</text><text x="430" y="154">All Regions ▾</text><text x="666" y="154" class="m">Channel</text><text x="744" y="154">All Channels ▾</text><text x="1000" y="154" class="m">Product</text><text x="1074" y="154">All Products ▾</text></g>
  <g filter="url(#sh)"><rect x="36" y="202" width="284" height="150" rx="18" class="c"/><rect x="338" y="202" width="284" height="150" rx="18" class="c"/><rect x="640" y="202" width="284" height="150" rx="18" class="c"/><rect x="942" y="202" width="284" height="150" rx="18" class="c"/><rect x="1244" y="202" width="320" height="150" rx="18" class="c"/></g><g class="m t"><text x="60" y="239">NET SALES</text><text x="362" y="239">ORDERS</text><text x="664" y="239">AVG. ORDER VALUE</text><text x="966" y="239">GROSS MARGIN</text><text x="1268" y="239">TARGET ATTAINMENT</text></g><g class="v"><text x="60" y="290">Rp6.42B</text><text x="362" y="290">18,426</text><text x="664" y="290">Rp348K</text><text x="966" y="290">42.8%</text><text x="1268" y="290">108.4%</text></g><g class="t teal"><text x="60" y="324">▲ 12.4% YoY</text><text x="362" y="324">▲ 9.1% YoY</text><text x="664" y="324">▲ 3.0% YoY</text><text x="966" y="324">▲ 2.6 pts</text><text x="1268" y="324">▲ 8.4 pts</text></g>
  <rect x="36" y="376" width="1006" height="410" rx="18" class="c" filter="url(#sh)"/><text x="62" y="418" class="l">Monthly sales &amp; target</text><text x="62" y="446" class="m t">Revenue in Rp million</text><g class="g"><path d="M94 510H1014M94 576H1014M94 642H1014M94 708H1014"/></g><g class="teal"><rect x="136" y="635" width="62" height="75" rx="6"/><rect x="276" y="596" width="62" height="114" rx="6"/><rect x="416" y="548" width="62" height="162" rx="6"/><rect x="556" y="570" width="62" height="140" rx="6"/><rect x="696" y="501" width="62" height="209" rx="6"/><rect x="836" y="524" width="62" height="186" rx="6"/></g><path d="M136 621L307 574L447 560L587 531L727 518L867 485" fill="none" stroke="#efb947" stroke-width="7"/><g fill="#efb947"><circle cx="136" cy="621" r="7"/><circle cx="307" cy="574" r="7"/><circle cx="447" cy="560" r="7"/><circle cx="587" cy="531" r="7"/><circle cx="727" cy="518" r="7"/><circle cx="867" cy="485" r="7"/></g><g class="m t"><text x="146" y="748">Jan</text><text x="286" y="748">Feb</text><text x="426" y="748">Mar</text><text x="566" y="748">Apr</text><text x="706" y="748">May</text><text x="846" y="748">Jun</text></g>
  <rect x="1060" y="376" width="504" height="410" rx="18" class="c" filter="url(#sh)"/><text x="1086" y="418" class="l">Sales by region</text><g class="m t"><text x="1086" y="480">West Metro</text><text x="1086" y="548">Central City</text><text x="1086" y="616">East Valley</text><text x="1086" y="684">North Coast</text><text x="1086" y="752">South Ridge</text></g><g fill="#e2eeeb"><rect x="1214" y="461" width="312" height="27" rx="13"/><rect x="1214" y="529" width="312" height="27" rx="13"/><rect x="1214" y="597" width="312" height="27" rx="13"/><rect x="1214" y="665" width="312" height="27" rx="13"/><rect x="1214" y="733" width="312" height="27" rx="13"/></g><g class="green"><rect x="1214" y="461" width="282" height="27" rx="13"/><rect x="1214" y="529" width="240" height="27" rx="13"/><rect x="1214" y="597" width="198" height="27" rx="13"/><rect x="1214" y="665" width="153" height="27" rx="13"/><rect x="1214" y="733" width="114" height="27" rx="13"/></g>
  <rect x="36" y="810" width="496" height="354" rx="18" class="c" filter="url(#sh)"/><text x="62" y="852" class="l">Channel mix</text><circle cx="284" cy="995" r="106" fill="none" stroke="#e4efec" stroke-width="40"/><circle cx="284" cy="995" r="106" fill="none" stroke="#20a89a" stroke-width="40" stroke-dasharray="292 666" transform="rotate(-90 284 995)"/><circle cx="284" cy="995" r="106" fill="none" stroke="#5abb7c" stroke-width="40" stroke-dasharray="180 666" stroke-dashoffset="-292" transform="rotate(-90 284 995)"/><circle cx="284" cy="995" r="106" fill="none" stroke="#efb947" stroke-width="40" stroke-dasharray="116 666" stroke-dashoffset="-472" transform="rotate(-90 284 995)"/><text x="248" y="1004" class="v">6.4B</text><text x="62" y="1131" class="t teal">● Direct 44%</text><text x="190" y="1131" class="t green">● Partner 27%</text><text x="334" y="1131" class="t gold">● Campaign 17%</text>
  <rect x="550" y="810" width="1014" height="354" rx="18" class="c" filter="url(#sh)"/><text x="576" y="852" class="l">Top sales contributors</text><g class="m t"><text x="576" y="902">TEAM</text><text x="870" y="902">ORDERS</text><text x="1060" y="902">NET SALES</text><text x="1280" y="902">TARGET</text></g><g class="t"><text x="576" y="952">Team Alpha</text><text x="870" y="952">3,842</text><text x="1060" y="952">Rp1.42B</text><text x="1280" y="952">118%</text><text x="576" y="1005">Team Bravo</text><text x="870" y="1005">3,216</text><text x="1060" y="1005">Rp1.08B</text><text x="1280" y="1005">111%</text><text x="576" y="1058">Team Cendana</text><text x="870" y="1058">2,744</text><text x="1060" y="1058">Rp926M</text><text x="1280" y="1058">104%</text><text x="576" y="1111">Team Delta</text><text x="870" y="1111">2,198</text><text x="1060" y="1111">Rp742M</text><text x="1280" y="1111">97%</text></g><g class="g"><path d="M576 918H1538M576 969H1538M576 1022H1538M576 1075H1538M576 1128H1538"/></g>
</svg>
