<svg xmlns="http://www.w3.org/2000/svg" width="1600" height="900" viewBox="0 0 1600 900">
  <defs><linearGradient id="h11" x2="1"><stop stop-color="#f7f3fb"/><stop offset="1" stop-color="#fff8e4"/></linearGradient><filter id="s11"><feDropShadow dy="5" stdDeviation="8" flood-opacity=".13"/></filter></defs>
  <style>text{font-family:Arial,sans-serif;fill:#30343d}.m{fill:#7e818a}.t{font-size:15px}.l{font-size:18px;font-weight:700}.v{font-size:34px;font-weight:800}.h{font-size:30px;font-weight:800}.c{fill:#fff;stroke:#e3e4e9;stroke-width:2}.g{stroke:#e9e9ee}.teal{fill:#4d8e89}.blue{fill:#668cb5}.gold{fill:#deb748}.red{fill:#d96e71}.violet{fill:#8975c2}</style>
  <rect width="1600" height="900" fill="#f5f6f7"/><rect x="34" y="30" width="1532" height="76" rx="18" fill="url(#h11)" stroke="#e4e5e9" filter="url(#s11)"/><circle cx="74" cy="68" r="20" fill="#8975c2"/><path d="M64 76V61h20v15M68 66h12M68 71h8" fill="none" stroke="#fff" stroke-width="3"/><text x="112" y="68" class="h">Report Status &amp; Rating Monitoring</text><text x="112" y="91" class="m t">Operational reporting, review quality, and service ratings</text><rect x="1294" y="49" width="242" height="38" rx="19" fill="#4a4756"/><text x="1322" y="74" class="t" fill="#fff">DEMO · SYNTHETIC DATA</text>
  <g filter="url(#s11)"><rect x="34" y="128" width="236" height="124" rx="16" class="c"/><rect x="286" y="128" width="236" height="124" rx="16" class="c"/><rect x="538" y="128" width="236" height="124" rx="16" class="c"/><rect x="790" y="128" width="236" height="124" rx="16" class="c"/><rect x="1042" y="128" width="236" height="124" rx="16" class="c"/><rect x="1294" y="128" width="272" height="124" rx="16" class="c"/></g><g class="m t"><text x="56" y="161">TOTAL REPORTS</text><text x="308" y="161">COMPLETED</text><text x="560" y="161">IN REVIEW</text><text x="812" y="161">OVERDUE</text><text x="1064" y="161">AVG. RATING</text><text x="1316" y="161">FIRST RESPONSE</text></g><g class="v"><text x="56" y="208">4,280</text><text x="308" y="208">3,614</text><text x="560" y="208">428</text><text x="812" y="208">84</text><text x="1064" y="208">4.56/5</text><text x="1316" y="208">2h 18m</text></g><g class="t"><text x="56" y="236" class="violet">▲ 12.6%</text><text x="308" y="236" class="teal">84.4%</text><text x="560" y="236" class="gold">10.0%</text><text x="812" y="236" class="red">▼ 1.2 pts</text><text x="1064" y="236" class="teal">▲ 0.21</text><text x="1316" y="236" class="teal">▼ 26m</text></g>
  <rect x="34" y="274" width="720" height="274" rx="18" class="c" filter="url(#s11)"/><text x="58" y="312" class="l">Report volume &amp; completion</text><g class="g"><path d="M84 365H726M84 414H726M84 463H726M84 512H726"/></g><path d="M84 477C132 454 169 462 217 429S302 444 350 402S435 420 483 382S568 397 616 358S690 371 726 345" fill="none" stroke="#8975c2" stroke-width="7"/><path d="M84 500C132 490 172 480 220 484S306 463 354 468S441 446 489 452S575 426 623 432S690 408 726 413" fill="none" stroke="#4d8e89" stroke-width="5"/>
  <rect x="772" y="274" width="390" height="274" rx="18" class="c" filter="url(#s11)"/><text x="796" y="312" class="l">Status mix</text><circle cx="967" cy="423" r="82" fill="none" stroke="#e7e7ed" stroke-width="31"/><circle cx="967" cy="423" r="82" fill="none" stroke="#4d8e89" stroke-width="31" stroke-dasharray="435 515" transform="rotate(-90 967 423)"/><circle cx="967" cy="423" r="82" fill="none" stroke="#deb748" stroke-width="31" stroke-dasharray="52 515" stroke-dashoffset="-435" transform="rotate(-90 967 423)"/><circle cx="967" cy="423" r="82" fill="none" stroke="#d96e71" stroke-width="31" stroke-dasharray="28 515" stroke-dashoffset="-487" transform="rotate(-90 967 423)"/><text x="931" y="430" class="v">4.28K</text>
  <rect x="1180" y="274" width="386" height="274" rx="18" class="c" filter="url(#s11)"/><text x="1204" y="312" class="l">Rating distribution</text><g class="t"><text x="1204" y="363">5 ★</text><text x="1204" y="405">4 ★</text><text x="1204" y="447">3 ★</text><text x="1204" y="489">2 ★</text><text x="1204" y="531">1 ★</text></g><g fill="#e8e8ed"><rect x="1252" y="347" width="280" height="20" rx="10"/><rect x="1252" y="389" width="280" height="20" rx="10"/><rect x="1252" y="431" width="280" height="20" rx="10"/><rect x="1252" y="473" width="280" height="20" rx="10"/><rect x="1252" y="515" width="280" height="20" rx="10"/></g><g class="gold"><rect x="1252" y="347" width="236" height="20" rx="10"/><rect x="1252" y="389" width="182" height="20" rx="10"/><rect x="1252" y="431" width="92" height="20" rx="10"/><rect x="1252" y="473" width="38" height="20" rx="10"/><rect x="1252" y="515" width="18" height="20" rx="10"/></g>
  <rect x="34" y="566" width="452" height="300" rx="18" class="c" filter="url(#s11)"/><text x="58" y="604" class="l">Average rating by service</text><g class="m t"><text x="58" y="651">Assessment</text><text x="58" y="703">Live class</text><text x="58" y="755">Mentoring</text><text x="58" y="807">Support</text></g><g fill="#e7e7ed"><rect x="160" y="635" width="294" height="24" rx="12"/><rect x="160" y="687" width="294" height="24" rx="12"/><rect x="160" y="739" width="294" height="24" rx="12"/><rect x="160" y="791" width="294" height="24" rx="12"/></g><g class="violet"><rect x="160" y="635" width="276" height="24" rx="12"/><rect x="160" y="687" width="266" height="24" rx="12"/><rect x="160" y="739" width="250" height="24" rx="12"/><rect x="160" y="791" width="236" height="24" rx="12"/></g>
  <rect x="504" y="566" width="1062" height="300" rx="18" class="c" filter="url(#s11)"/><text x="528" y="604" class="l">Report operations register</text><g class="m t"><text x="528" y="647">CATEGORY</text><text x="820" y="647">VOLUME</text><text x="984" y="647">COMPLETION</text><text x="1190" y="647">RATING</text><text x="1378" y="647">SLA STATUS</text></g><g class="t"><text x="528" y="697">Learning experience</text><text x="820" y="697">1,284</text><text x="984" y="697">88%</text><text x="1190" y="697">4.72</text><text x="1378" y="697" class="teal">Healthy</text><text x="528" y="747">Payment assistance</text><text x="820" y="747">986</text><text x="984" y="747">82%</text><text x="1190" y="747">4.38</text><text x="1378" y="747" class="gold">Watch</text><text x="528" y="797">Technical support</text><text x="820" y="797">842</text><text x="984" y="797">79%</text><text x="1190" y="797">4.44</text><text x="1378" y="797" class="gold">Watch</text><text x="528" y="847">Content quality</text><text x="820" y="847">716</text><text x="984" y="847">91%</text><text x="1190" y="847">4.68</text><text x="1378" y="847" class="teal">Healthy</text></g><g class="g"><path d="M528 663H1538M528 714H1538M528 764H1538M528 814H1538"/></g>
</svg>
