<svg xmlns="http://www.w3.org/2000/svg" width="1600" height="900" viewBox="0 0 1600 900">
  <defs><linearGradient id="bg4" x2="1" y2="1"><stop stop-color="#17172a"/><stop offset="1" stop-color="#25283a"/></linearGradient><filter id="sd"><feDropShadow dy="7" stdDeviation="9" flood-opacity=".28"/></filter></defs>
  <style>text{font-family:Arial,sans-serif;fill:#f0edf7}.m{fill:#aaa8bc}.t{font-size:15px}.l{font-size:18px;font-weight:700}.v{font-size:35px;font-weight:800}.h{font-size:30px;font-weight:800}.c{fill:#25283c;stroke:#41465f;stroke-width:2}.g{stroke:#42465c}.p{fill:#c36ec9}.b{fill:#65b8d0}.r{fill:#e76d78}.y{fill:#edc953}</style>
  <rect width="1600" height="900" fill="url(#bg4)"/><rect x="34" y="30" width="1532" height="76" rx="18" class="c" filter="url(#sd)"/><rect x="56" y="49" width="40" height="40" rx="10" fill="#c36ec9"/><path d="M66 77l8-14 8 8 7-13" fill="none" stroke="#fff" stroke-width="4"/><text x="114" y="68" class="h">Competitor Benchmark Analysis</text><text x="114" y="91" class="m t">Synthetic market comparison · Product intelligence</text><rect x="1298" y="49" width="238" height="38" rx="19" fill="#33364d"/><text x="1322" y="74" class="t">DEMO · SYNTHETIC DATA</text>
  <g filter="url(#sd)"><rect x="34" y="128" width="236" height="124" rx="16" class="c"/><rect x="286" y="128" width="236" height="124" rx="16" class="c"/><rect x="538" y="128" width="236" height="124" rx="16" class="c"/><rect x="790" y="128" width="236" height="124" rx="16" class="c"/><rect x="1042" y="128" width="236" height="124" rx="16" class="c"/><rect x="1294" y="128" width="272" height="124" rx="16" class="c"/></g><g class="m t"><text x="56" y="161">MARKET SHARE</text><text x="308" y="161">ACTIVE USERS</text><text x="560" y="161">ENGAGEMENT</text><text x="812" y="161">CONVERSION</text><text x="1064" y="161">NPS</text><text x="1316" y="161">VALUE INDEX</text></g><g class="v"><text x="56" y="208">18.6%</text><text x="308" y="208">42.8K</text><text x="560" y="208">68.4</text><text x="812" y="208">11.9%</text><text x="1064" y="208">+46</text><text x="1316" y="208">82/100</text></g><g class="t"><text x="56" y="236" class="p">Rank #2</text><text x="308" y="236" class="b">▲ 6.2%</text><text x="560" y="236" class="y">Rank #1</text><text x="812" y="236" class="p">Rank #2</text><text x="1064" y="236" class="b">▲ 5 pts</text><text x="1316" y="236" class="y">Strong</text></g>
  <rect x="34" y="274" width="500" height="272" rx="18" class="c"/><text x="58" y="312" class="l">Feature benchmark heatmap</text><g class="m t"><text x="180" y="352">OUR PRODUCT</text><text x="292" y="352">NOVA</text><text x="374" y="352">PULSE</text><text x="454" y="352">ORBIT</text><text x="58" y="391">Question bank</text><text x="58" y="432">Live classes</text><text x="58" y="473">Analytics</text><text x="58" y="514">Mentoring</text></g><g><rect x="180" y="369" width="86" height="28" rx="5" class="p"/><rect x="282" y="369" width="72" height="28" rx="5" class="b"/><rect x="366" y="369" width="72" height="28" rx="5" class="y"/><rect x="450" y="369" width="54" height="28" rx="5" class="r"/><rect x="180" y="410" width="78" height="28" rx="5" class="p"/><rect x="282" y="410" width="62" height="28" rx="5" class="y"/><rect x="366" y="410" width="52" height="28" rx="5" class="r"/><rect x="450" y="410" width="72" height="28" rx="5" class="b"/><rect x="180" y="451" width="90" height="28" rx="5" class="p"/><rect x="282" y="451" width="58" height="28" rx="5" class="r"/><rect x="366" y="451" width="69" height="28" rx="5" class="b"/><rect x="450" y="451" width="47" height="28" rx="5" class="y"/><rect x="180" y="492" width="68" height="28" rx="5" class="p"/><rect x="282" y="492" width="82" height="28" rx="5" class="b"/><rect x="366" y="492" width="55" height="28" rx="5" class="r"/><rect x="450" y="492" width="60" height="28" rx="5" class="y"/></g>
  <rect x="552" y="274" width="500" height="272" rx="18" class="c"/><text x="576" y="312" class="l">Price vs satisfaction</text><g class="g"><path d="M596 365H1020M596 415H1020M596 465H1020M596 515H1020"/><path d="M660 344V520M760 344V520M860 344V520M960 344V520"/></g><circle cx="760" cy="392" r="27" class="p"/><circle cx="684" cy="446" r="22" class="b"/><circle cx="888" cy="378" r="25" class="y"/><circle cx="936" cy="479" r="20" class="r"/><text x="784" y="386" class="t">Our Product</text><text x="704" y="441" class="t">Nova</text><text x="914" y="371" class="t">Pulse</text><text x="959" y="475" class="t">Orbit</text>
  <rect x="1070" y="274" width="496" height="272" rx="18" class="c"/><text x="1094" y="312" class="l">Competitive scorecard</text><g class="m t"><text x="1094" y="356">Brand</text><text x="1255" y="356">Reach</text><text x="1361" y="356">Quality</text><text x="1465" y="356">Value</text></g><g class="t"><text x="1094" y="401">Our Product</text><text x="1255" y="401">86</text><text x="1361" y="401">91</text><text x="1465" y="401">88</text><text x="1094" y="445">Nova</text><text x="1255" y="445">92</text><text x="1361" y="445">78</text><text x="1465" y="445">71</text><text x="1094" y="489">Pulse</text><text x="1255" y="489">74</text><text x="1361" y="489">83</text><text x="1465" y="489">80</text><text x="1094" y="533">Orbit</text><text x="1255" y="533">68</text><text x="1361" y="533">70</text><text x="1465" y="533">76</text></g>
  <rect x="34" y="564" width="500" height="302" rx="18" class="c"/><text x="58" y="602" class="l">Audience overlap</text><circle cx="238" cy="723" r="102" fill="#65b8d0" opacity=".55"/><circle cx="332" cy="723" r="102" fill="#c36ec9" opacity=".55"/><text x="146" y="716" class="l">Nova</text><text x="361" y="716" class="l">Our Product</text><text x="264" y="730" class="v">31%</text><text x="201" y="809" class="m t">Shared high-intent audience</text>
  <rect x="552" y="564" width="1014" height="302" rx="18" class="c"/><text x="576" y="602" class="l">Brand momentum index</text><g class="g"><path d="M596 653H1538M596 701H1538M596 749H1538M596 797H1538"/></g><path d="M596 781C676 755 730 770 810 724S944 746 1020 692S1156 718 1232 661S1388 688 1538 622" fill="none" stroke="#c36ec9" stroke-width="7"/><path d="M596 808C678 799 748 777 824 785S958 760 1036 766S1174 733 1250 742S1404 712 1538 718" fill="none" stroke="#65b8d0" stroke-width="5"/><g class="t"><text x="1300" y="604" class="p">— Our Product</text><text x="1436" y="604" class="b">— Market avg.</text></g>
</svg>
