<svg xmlns="http://www.w3.org/2000/svg" width="1600" height="900" viewBox="0 0 1600 900">
  <defs><linearGradient id="h" x2="1"><stop stop-color="#fff8df"/><stop offset="1" stop-color="#f3f8f6"/></linearGradient><filter id="s"><feDropShadow dy="5" stdDeviation="8" flood-opacity=".14"/></filter></defs>
  <style>text{font-family:Arial,sans-serif;fill:#263634}.m{fill:#788784}.t{font-size:15px}.l{font-size:18px;font-weight:700}.v{font-size:34px;font-weight:800}.h1{font-size:30px;font-weight:800}.c{fill:#fff;stroke:#dfe7e4;stroke-width:2}.g{stroke:#e7eeec}.teal{fill:#4d9088}.gold{fill:#e7b83f}.red{fill:#dc6b6b}.violet{fill:#8e78c9}</style>
  <rect width="1600" height="900" fill="#f4f7f6"/><rect x="34" y="30" width="1532" height="76" rx="18" fill="url(#h)" stroke="#e2e8e5" filter="url(#s)"/><circle cx="74" cy="68" r="20" fill="#e7b83f"/><path d="M63 64q11-11 22 0v11q-11 8-22 0z" fill="#fff"/><text x="112" y="68" class="h1">Customer Feedback &amp; Sentiment Monitoring</text><text x="112" y="91" class="m t">Voice of customer · Survey and review signals</text><rect x="1294" y="49" width="242" height="38" rx="19" fill="#364946"/><text x="1322" y="74" class="t" fill="#fff">DEMO · SYNTHETIC DATA</text>
  <g filter="url(#s)"><rect x="34" y="128" width="236" height="124" rx="16" class="c"/><rect x="286" y="128" width="236" height="124" rx="16" class="c"/><rect x="538" y="128" width="236" height="124" rx="16" class="c"/><rect x="790" y="128" width="236" height="124" rx="16" class="c"/><rect x="1042" y="128" width="236" height="124" rx="16" class="c"/><rect x="1294" y="128" width="272" height="124" rx="16" class="c"/></g><g class="m t"><text x="56" y="161">RESPONSES</text><text x="308" y="161">CSAT</text><text x="560" y="161">NPS</text><text x="812" y="161">POSITIVE</text><text x="1064" y="161">NEUTRAL</text><text x="1316" y="161">NEGATIVE</text></g><g class="v"><text x="56" y="208">8,460</text><text x="308" y="208">4.42/5</text><text x="560" y="208">+48</text><text x="812" y="208">72.6%</text><text x="1064" y="208">19.4%</text><text x="1316" y="208">8.0%</text></g><g class="t"><text x="56" y="236" class="teal">▲ 11.4%</text><text x="308" y="236" class="teal">▲ 0.18</text><text x="560" y="236" class="teal">▲ 6 pts</text><text x="812" y="236" class="teal">▲ 3.2 pts</text><text x="1064" y="236" class="gold">▼ 1.0 pt</text><text x="1316" y="236" class="red">▼ 2.2 pts</text></g>
  <rect x="34" y="274" width="640" height="274" rx="18" class="c" filter="url(#s)"/><text x="58" y="312" class="l">Sentiment trend</text><g class="g"><path d="M84 365H646M84 414H646M84 463H646M84 512H646"/></g><path d="M84 476C128 448 168 459 211 425S295 443 338 402S423 420 466 377S550 398 646 345" fill="none" stroke="#4d9088" stroke-width="7"/><path d="M84 506C132 499 173 481 216 488S300 469 343 474S430 451 473 459S560 437 646 441" fill="none" stroke="#dc6b6b" stroke-width="5"/>
  <rect x="692" y="274" width="398" height="274" rx="18" class="c" filter="url(#s)"/><text x="716" y="312" class="l">Sentiment mix</text><circle cx="891" cy="422" r="82" fill="none" stroke="#e6ecea" stroke-width="31"/><circle cx="891" cy="422" r="82" fill="none" stroke="#4d9088" stroke-width="31" stroke-dasharray="374 515" transform="rotate(-90 891 422)"/><circle cx="891" cy="422" r="82" fill="none" stroke="#e7b83f" stroke-width="31" stroke-dasharray="100 515" stroke-dashoffset="-374" transform="rotate(-90 891 422)"/><circle cx="891" cy="422" r="82" fill="none" stroke="#dc6b6b" stroke-width="31" stroke-dasharray="41 515" stroke-dashoffset="-474" transform="rotate(-90 891 422)"/><text x="854" y="429" class="v">8.46K</text>
  <rect x="1108" y="274" width="458" height="274" rx="18" class="c" filter="url(#s)"/><text x="1132" y="312" class="l">Top feedback themes</text><g class="t"><rect x="1132" y="349" width="158" height="42" rx="21" fill="#dcece9"/><text x="1154" y="375">Practice quality</text><rect x="1304" y="349" width="118" height="42" rx="21" fill="#fff1c7"/><text x="1324" y="375">Fast access</text><rect x="1132" y="405" width="128" height="42" rx="21" fill="#eee8fa"/><text x="1154" y="431">Live class</text><rect x="1274" y="405" width="176" height="42" rx="21" fill="#fde4e4"/><text x="1295" y="431">Payment clarity</text><rect x="1132" y="461" width="176" height="42" rx="21" fill="#dcece9"/><text x="1154" y="487">Helpful mentor</text><rect x="1322" y="461" width="112" height="42" rx="21" fill="#fff1c7"/><text x="1342" y="487">UI flow</text></g>
  <rect x="34" y="566" width="500" height="300" rx="18" class="c" filter="url(#s)"/><text x="58" y="604" class="l">CSAT by touchpoint</text><g class="m t"><text x="58" y="651">Checkout</text><text x="58" y="703">Practice</text><text x="58" y="755">Live class</text><text x="58" y="807">Support</text></g><g fill="#e5ecea"><rect x="158" y="635" width="332" height="24" rx="12"/><rect x="158" y="687" width="332" height="24" rx="12"/><rect x="158" y="739" width="332" height="24" rx="12"/><rect x="158" y="791" width="332" height="24" rx="12"/></g><g class="teal"><rect x="158" y="635" width="292" height="24" rx="12"/><rect x="158" y="687" width="308" height="24" rx="12"/><rect x="158" y="739" width="270" height="24" rx="12"/><rect x="158" y="791" width="236" height="24" rx="12"/></g>
  <rect x="552" y="566" width="1014" height="300" rx="18" class="c" filter="url(#s)"/><text x="576" y="604" class="l">Feedback action register</text><g class="m t"><text x="576" y="647">THEME</text><text x="875" y="647">MENTIONS</text><text x="1055" y="647">OWNER</text><text x="1260" y="647">PRIORITY</text><text x="1420" y="647">STATUS</text></g><g class="t"><text x="576" y="697">Payment instructions</text><text x="875" y="697">418</text><text x="1055" y="697">Team Alpha</text><text x="1260" y="697" class="red">High</text><text x="1420" y="697">In progress</text><text x="576" y="747">Mobile navigation</text><text x="875" y="747">286</text><text x="1055" y="747">Team Bravo</text><text x="1260" y="747" class="gold">Medium</text><text x="1420" y="747">Planned</text><text x="576" y="797">Mentor response</text><text x="875" y="797">204</text><text x="1055" y="797">Team Cendana</text><text x="1260" y="797" class="gold">Medium</text><text x="1420" y="797">Monitoring</text><text x="576" y="847">Video buffering</text><text x="875" y="847">118</text><text x="1055" y="847">Team Delta</text><text x="1260" y="847">Low</text><text x="1420" y="847">Resolved</text></g><g class="g"><path d="M576 663H1538M576 714H1538M576 764H1538M576 814H1538"/></g>
</svg>
