<svg xmlns="http://www.w3.org/2000/svg" width="1600" height="900" viewBox="0 0 1600 900">
  <defs>
    <linearGradient id="bg" x2="1" y2="1"><stop stop-color="#111827"/><stop offset="1" stop-color="#172235"/></linearGradient>
    <linearGradient id="bar" x2="0" y2="1"><stop stop-color="#39d6c0"/><stop offset="1" stop-color="#14a9c7"/></linearGradient>
    <filter id="shadow"><feDropShadow dx="0" dy="7" stdDeviation="10" flood-opacity=".22"/></filter>
  </defs>
  <style>
    text{font-family:Arial,sans-serif;fill:#e8eef8}.muted{fill:#91a0b8}.tiny{font-size:15px}.label{font-size:18px;font-weight:700}.value{font-size:34px;font-weight:800}.title{font-size:30px;font-weight:800}.card{fill:#1c2940;stroke:#30415d;stroke-width:2}.grid{stroke:#34445f;stroke-width:1}.accent{fill:#f5c84b}.teal{fill:#35cfb7}.cyan{fill:#42bfe8}
  </style>
  <rect width="1600" height="900" fill="url(#bg)"/>
  <rect x="34" y="30" width="1532" height="76" rx="18" class="card" filter="url(#shadow)"/>
  <rect x="56" y="49" width="38" height="38" rx="9" fill="#f5c84b"/><path d="M67 76V62h5v14m7 0V55h5v21" stroke="#172235" stroke-width="4"/>
  <text x="112" y="68" class="title">EdTech Users &amp; Revenue Monitoring</text><text x="112" y="91" class="muted tiny">Executive overview · Jan–Jun 2026</text>
  <rect x="1294" y="49" width="242" height="38" rx="19" fill="#263753"/><circle cx="1319" cy="68" r="7" class="teal"/><text x="1337" y="74" class="tiny">DEMO · SYNTHETIC DATA</text>
  <g filter="url(#shadow)">
    <rect x="34" y="128" width="236" height="128" rx="16" class="card"/><rect x="286" y="128" width="236" height="128" rx="16" class="card"/><rect x="538" y="128" width="236" height="128" rx="16" class="card"/><rect x="790" y="128" width="236" height="128" rx="16" class="card"/><rect x="1042" y="128" width="236" height="128" rx="16" class="card"/><rect x="1294" y="128" width="272" height="128" rx="16" class="card"/>
  </g>
  <g class="tiny muted"><text x="56" y="161">REGISTERED USERS</text><text x="308" y="161">ACTIVE USERS</text><text x="560" y="161">NET REVENUE</text><text x="812" y="161">CONVERSION</text><text x="1064" y="161">AVG. ORDER VALUE</text><text x="1316" y="161">RENEWAL RATE</text></g>
  <g class="value"><text x="56" y="209">48,260</text><text x="308" y="209">31,840</text><text x="560" y="209">Rp4.82B</text><text x="812" y="209">12.8%</text><text x="1064" y="209">Rp186K</text><text x="1316" y="209">78.4%</text></g>
  <g class="tiny"><text x="56" y="238" class="teal">▲ 8.4% vs prior</text><text x="308" y="238" class="teal">▲ 5.1% vs prior</text><text x="560" y="238" class="teal">▲ 11.7% vs prior</text><text x="812" y="238" class="accent">▲ 1.2 pts</text><text x="1064" y="238" class="teal">▲ 3.0%</text><text x="1316" y="238" class="teal">▲ 2.6 pts</text></g>
  <rect x="34" y="278" width="720" height="282" rx="18" class="card"/><text x="58" y="316" class="label">Monthly users &amp; paid conversions</text><text x="58" y="341" class="muted tiny">Users by acquisition month</text>
  <g class="grid"><path d="M84 379H724M84 425H724M84 471H724M84 517H724"/><path d="M84 368V520"/></g>
  <g fill="url(#bar)"><rect x="116" y="452" width="48" height="68" rx="5"/><rect x="210" y="425" width="48" height="95" rx="5"/><rect x="304" y="399" width="48" height="121" rx="5"/><rect x="398" y="410" width="48" height="110" rx="5"/><rect x="492" y="371" width="48" height="149" rx="5"/><rect x="586" y="386" width="48" height="134" rx="5"/><rect x="680" y="356" width="48" height="164" rx="5"/></g>
  <g class="accent"><rect x="116" y="485" width="48" height="35"/><rect x="210" y="475" width="48" height="45"/><rect x="304" y="462" width="48" height="58"/><rect x="398" y="466" width="48" height="54"/><rect x="492" y="445" width="48" height="75"/><rect x="586" y="451" width="48" height="69"/><rect x="680" y="437" width="48" height="83"/></g>
  <g class="muted tiny"><text x="121" y="544">Jan</text><text x="215" y="544">Feb</text><text x="309" y="544">Mar</text><text x="403" y="544">Apr</text><text x="497" y="544">May</text><text x="591" y="544">Jun</text><text x="685" y="544">Jul</text></g>
  <rect x="772" y="278" width="430" height="282" rx="18" class="card"/><text x="796" y="316" class="label">Revenue trend</text><text x="796" y="341" class="muted tiny">Net revenue · Rp million</text>
  <g class="grid"><path d="M812 386H1170M812 432H1170M812 478H1170M812 524H1170"/></g><path d="M812 493 C855 470 878 478 916 445 S980 459 1018 407 S1085 421 1120 376 S1150 394 1170 356" fill="none" stroke="#35cfb7" stroke-width="7"/><path d="M812 493 C855 470 878 478 916 445 S980 459 1018 407 S1085 421 1120 376 S1150 394 1170 356 L1170 524H812Z" fill="#35cfb7" opacity=".12"/><g fill="#35cfb7"><circle cx="812" cy="493" r="6"/><circle cx="916" cy="445" r="6"/><circle cx="1018" cy="407" r="6"/><circle cx="1120" cy="376" r="6"/><circle cx="1170" cy="356" r="6"/></g>
  <rect x="1220" y="278" width="346" height="282" rx="18" class="card"/><text x="1244" y="316" class="label">User activation</text><text x="1244" y="341" class="muted tiny">Onboarding completion</text><circle cx="1393" cy="438" r="78" fill="none" stroke="#30415d" stroke-width="25"/><circle cx="1393" cy="438" r="78" fill="none" stroke="#f5c84b" stroke-width="25" stroke-dasharray="371 490" transform="rotate(-90 1393 438)"/><text x="1344" y="450" class="value">75.8%</text><text x="1328" y="493" class="muted tiny">36,585 activated</text>
  <rect x="34" y="578" width="500" height="288" rx="18" class="card"/><text x="58" y="616" class="label">Revenue by product</text><g class="tiny muted"><text x="58" y="661">Practice Pack</text><text x="58" y="711">Live Class</text><text x="58" y="761">Premium Plan</text><text x="58" y="811">Mentoring</text></g><g fill="#2d3c56"><rect x="180" y="645" width="300" height="22" rx="11"/><rect x="180" y="695" width="300" height="22" rx="11"/><rect x="180" y="745" width="300" height="22" rx="11"/><rect x="180" y="795" width="300" height="22" rx="11"/></g><g class="cyan"><rect x="180" y="645" width="268" height="22" rx="11"/><rect x="180" y="695" width="218" height="22" rx="11"/><rect x="180" y="745" width="174" height="22" rx="11"/><rect x="180" y="795" width="124" height="22" rx="11"/></g>
  <rect x="552" y="578" width="1014" height="288" rx="18" class="card"/><text x="576" y="616" class="label">Weekly operating pulse</text><g class="grid"><path d="M580 662H1538M580 710H1538M580 758H1538M580 806H1538"/></g><polyline points="580,786 660,774 740,746 820,762 900,712 980,722 1060,680 1140,698 1220,650 1300,667 1380,630 1460,646 1538,608" fill="none" stroke="#42bfe8" stroke-width="6"/><polyline points="580,813 660,804 740,795 820,776 900,784 980,758 1060,770 1140,739 1220,745 1300,715 1380,723 1460,694 1538,704" fill="none" stroke="#f5c84b" stroke-width="5"/><g class="tiny"><text x="1320" y="615" class="cyan">— Active users</text><text x="1450" y="615" class="accent">— Paid orders</text></g>
</svg>
