<svg xmlns="http://www.w3.org/2000/svg" width="1600" height="900" viewBox="0 0 1600 900">
  <defs><linearGradient id="b" x2="1" y2="1"><stop stop-color="#0e1416"/><stop offset="1" stop-color="#171c23"/></linearGradient><filter id="sh"><feDropShadow dy="7" stdDeviation="9" flood-opacity=".3"/></filter></defs>
  <style>text{font-family:Arial,sans-serif;fill:#ecf2f3}.m{fill:#8f9ca2}.t{font-size:15px}.l{font-size:18px;font-weight:700}.v{font-size:35px;font-weight:800}.h{font-size:30px;font-weight:800}.c{fill:#1b232b;stroke:#33404a;stroke-width:2}.g{stroke:#34414a}.y{fill:#e5cc56}.cyn{fill:#55c4cf}.bl{fill:#5f92d8}.pk{fill:#ca6ca8}</style>
  <rect width="1600" height="900" fill="url(#b)"/><rect x="34" y="30" width="1532" height="76" rx="18" class="c" filter="url(#sh)"/><rect x="56" y="49" width="40" height="40" rx="20" fill="#55c4cf"/><path d="M68 60h16M68 68h12M68 76h9" stroke="#102024" stroke-width="4"/><text x="114" y="68" class="h">JadiPCPM User Segmentation Analysis</text><text x="114" y="91" class="m t">Behavioral cohorts, product affinity, and engagement</text><rect x="1298" y="49" width="238" height="38" rx="19" fill="#28333b"/><text x="1322" y="74" class="t">DEMO · SYNTHETIC DATA</text>
  <g filter="url(#sh)"><rect x="34" y="128" width="284" height="126" rx="16" class="c"/><rect x="334" y="128" width="284" height="126" rx="16" class="c"/><rect x="634" y="128" width="284" height="126" rx="16" class="c"/><rect x="934" y="128" width="284" height="126" rx="16" class="c"/><rect x="1234" y="128" width="332" height="126" rx="16" class="c"/></g><g class="m t"><text x="56" y="161">TOTAL USERS</text><text x="356" y="161">HIGH INTENT</text><text x="656" y="161">ACTIVE LEARNERS</text><text x="956" y="161">AT-RISK USERS</text><text x="1256" y="161">AVG. ENGAGEMENT SCORE</text></g><g class="v"><text x="56" y="208">24,680</text><text x="356" y="208">5,920</text><text x="656" y="208">14,360</text><text x="956" y="208">2,184</text><text x="1256" y="208">74.6</text></g><g class="t"><text x="56" y="236" class="cyn">▲ 7.1%</text><text x="356" y="236" class="y">24% of users</text><text x="656" y="236" class="cyn">58% of users</text><text x="956" y="236" class="pk">8.8% of users</text><text x="1256" y="236" class="cyn">▲ 3.8 pts</text></g>
  <rect x="34" y="274" width="520" height="276" rx="18" class="c"/><text x="58" y="312" class="l">Lifecycle segments</text><text x="58" y="337" class="m t">Users and revenue contribution</text><path d="M86 376H502L461 416H127Z" class="cyn"/><path d="M127 427H461L421 467H167Z" class="bl"/><path d="M167 478H421L378 518H210Z" class="y"/><g text-anchor="middle" class="t"><text x="294" y="402">DISCOVER · 10,320</text><text x="294" y="453">ENGAGE · 8,440</text><text x="294" y="504">CONVERT · 5,920</text></g>
  <rect x="572" y="274" width="560" height="276" rx="18" class="c"/><text x="596" y="312" class="l">Engagement by cohort</text><g class="g"><path d="M620 360H1104M620 407H1104M620 454H1104M620 501H1104"/></g><path d="M620 478C669 447 702 459 751 421S836 437 884 397S970 418 1018 367S1074 382 1104 350" fill="none" stroke="#55c4cf" stroke-width="7"/><path d="M620 497C675 487 714 469 756 472S846 444 890 452S974 425 1021 433S1074 407 1104 412" fill="none" stroke="#e5cc56" stroke-width="5"/>
  <rect x="1150" y="274" width="416" height="276" rx="18" class="c"/><text x="1174" y="312" class="l">Segment mix</text><circle cx="1358" cy="429" r="80" fill="none" stroke="#34414a" stroke-width="30"/><circle cx="1358" cy="429" r="80" fill="none" stroke="#55c4cf" stroke-width="30" stroke-dasharray="214 503" transform="rotate(-90 1358 429)"/><circle cx="1358" cy="429" r="80" fill="none" stroke="#5f92d8" stroke-width="30" stroke-dasharray="154 503" stroke-dashoffset="-214" transform="rotate(-90 1358 429)"/><circle cx="1358" cy="429" r="80" fill="none" stroke="#e5cc56" stroke-width="30" stroke-dasharray="94 503" stroke-dashoffset="-368" transform="rotate(-90 1358 429)"/><circle cx="1358" cy="429" r="80" fill="none" stroke="#ca6ca8" stroke-width="30" stroke-dasharray="41 503" stroke-dashoffset="-462" transform="rotate(-90 1358 429)"/><text x="1326" y="435" class="v">24.7K</text>
  <rect x="34" y="568" width="480" height="298" rx="18" class="c"/><text x="58" y="606" class="l">Product affinity</text><g class="m t"><text x="58" y="653">Practice tests</text><text x="58" y="705">Video lessons</text><text x="58" y="757">Live classes</text><text x="58" y="809">Mentoring</text></g><g fill="#303c45"><rect x="182" y="637" width="288" height="24" rx="12"/><rect x="182" y="689" width="288" height="24" rx="12"/><rect x="182" y="741" width="288" height="24" rx="12"/><rect x="182" y="793" width="288" height="24" rx="12"/></g><g class="cyn"><rect x="182" y="637" width="252" height="24" rx="12"/><rect x="182" y="689" width="213" height="24" rx="12"/><rect x="182" y="741" width="166" height="24" rx="12"/><rect x="182" y="793" width="108" height="24" rx="12"/></g>
  <rect x="532" y="568" width="622" height="298" rx="18" class="c"/><text x="556" y="606" class="l">Behavior matrix</text><g class="m t"><text x="556" y="650">SEGMENT</text><text x="760" y="650">SESSIONS</text><text x="900" y="650">COMPLETION</text><text x="1044" y="650">ARPU</text></g><g class="t"><text x="556" y="699">Focused achievers</text><text x="760" y="699">18.4</text><text x="900" y="699">86%</text><text x="1044" y="699">Rp142K</text><text x="556" y="747">Steady learners</text><text x="760" y="747">12.6</text><text x="900" y="747">72%</text><text x="1044" y="747">Rp96K</text><text x="556" y="795">Explorers</text><text x="760" y="795">6.8</text><text x="900" y="795">48%</text><text x="1044" y="795">Rp54K</text><text x="556" y="843">At risk</text><text x="760" y="843">2.1</text><text x="900" y="843">19%</text><text x="1044" y="843">Rp21K</text></g><g class="g"><path d="M556 665H1126M556 716H1126M556 764H1126M556 812H1126"/></g>
  <rect x="1172" y="568" width="394" height="298" rx="18" class="c"/><text x="1196" y="606" class="l">Persona score</text><g class="t"><text x="1196" y="657">Goal clarity</text><text x="1196" y="707">Learning habit</text><text x="1196" y="757">Payment intent</text><text x="1196" y="807">Community activity</text></g><g class="m"><rect x="1328" y="641" width="210" height="20" rx="10"/><rect x="1328" y="691" width="210" height="20" rx="10"/><rect x="1328" y="741" width="210" height="20" rx="10"/><rect x="1328" y="791" width="210" height="20" rx="10"/></g><g class="y"><rect x="1328" y="641" width="184" height="20" rx="10"/><rect x="1328" y="691" width="160" height="20" rx="10"/><rect x="1328" y="741" width="138" height="20" rx="10"/><rect x="1328" y="791" width="106" height="20" rx="10"/></g>
</svg>
