<svg xmlns="http://www.w3.org/2000/svg" width="1600" height="900" viewBox="0 0 1600 900">
  <defs><linearGradient id="h9" x2="1"><stop stop-color="#eff8f5"/><stop offset="1" stop-color="#faf7e9"/></linearGradient><filter id="s9"><feDropShadow dy="5" stdDeviation="8" flood-opacity=".13"/></filter></defs>
  <style>text{font-family:Arial,sans-serif;fill:#283836}.m{fill:#778985}.t{font-size:15px}.l{font-size:18px;font-weight:700}.v{font-size:34px;font-weight:800}.h{font-size:30px;font-weight:800}.c{fill:#fff;stroke:#dde8e5;stroke-width:2}.g{stroke:#e5eeeb}.teal{fill:#4a8e88}.blue{fill:#668fb8}.gold{fill:#ddb94c}.red{fill:#d96e71}</style>
  <rect width="1600" height="900" fill="#f4f7f6"/><rect x="34" y="30" width="1532" height="76" rx="18" fill="url(#h9)" stroke="#dfe8e5" filter="url(#s9)"/><circle cx="74" cy="68" r="20" fill="#4a8e88"/><path d="M61 72l10-12 7 7 10-14" fill="none" stroke="#fff" stroke-width="4"/><text x="112" y="68" class="h">Learning &amp; Simulation Activity Analysis</text><text x="112" y="91" class="m t">Practice behavior, completion, and learning outcomes</text><rect x="1294" y="49" width="242" height="38" rx="19" fill="#38504d"/><text x="1322" y="74" class="t" fill="#fff">DEMO · SYNTHETIC DATA</text>
  <g filter="url(#s9)"><rect x="34" y="128" width="236" height="124" rx="16" class="c"/><rect x="286" y="128" width="236" height="124" rx="16" class="c"/><rect x="538" y="128" width="236" height="124" rx="16" class="c"/><rect x="790" y="128" width="236" height="124" rx="16" class="c"/><rect x="1042" y="128" width="236" height="124" rx="16" class="c"/><rect x="1294" y="128" width="272" height="124" rx="16" class="c"/></g><g class="m t"><text x="56" y="161">ACTIVE LEARNERS</text><text x="308" y="161">SIMULATIONS</text><text x="560" y="161">QUESTIONS ANSWERED</text><text x="812" y="161">COMPLETION</text><text x="1064" y="161">AVG. SCORE</text><text x="1316" y="161">STUDY STREAK</text></g><g class="v"><text x="56" y="208">36.2K</text><text x="308" y="208">148K</text><text x="560" y="208">2.84M</text><text x="812" y="208">76.8%</text><text x="1064" y="208">72.4</text><text x="1316" y="208">8.6 days</text></g><g class="t teal"><text x="56" y="236">▲ 8.2%</text><text x="308" y="236">▲ 14.6%</text><text x="560" y="236">▲ 18.1%</text><text x="812" y="236">▲ 3.4 pts</text><text x="1064" y="236">▲ 4.2 pts</text><text x="1316" y="236">▲ 1.1 days</text></g>
  <rect x="34" y="274" width="650" height="278" rx="18" class="c" filter="url(#s9)"/><text x="58" y="312" class="l">Daily learning activity</text><g class="g"><path d="M84 365H656M84 414H656M84 463H656M84 512H656"/></g><path d="M84 487C128 467 159 475 202 443S278 454 322 411S404 431 447 386S535 405 656 348" fill="none" stroke="#4a8e88" stroke-width="7"/><path d="M84 487C128 467 159 475 202 443S278 454 322 411S404 431 447 386S535 405 656 348L656 512H84Z" fill="#4a8e88" opacity=".12"/>
  <rect x="702" y="274" width="410" height="278" rx="18" class="c" filter="url(#s9)"/><text x="726" y="312" class="l">Attempt outcomes</text><circle cx="907" cy="423" r="84" fill="none" stroke="#e4ece9" stroke-width="32"/><circle cx="907" cy="423" r="84" fill="none" stroke="#4a8e88" stroke-width="32" stroke-dasharray="322 528" transform="rotate(-90 907 423)"/><circle cx="907" cy="423" r="84" fill="none" stroke="#ddb94c" stroke-width="32" stroke-dasharray="137 528" stroke-dashoffset="-322" transform="rotate(-90 907 423)"/><circle cx="907" cy="423" r="84" fill="none" stroke="#d96e71" stroke-width="32" stroke-dasharray="69 528" stroke-dashoffset="-459" transform="rotate(-90 907 423)"/><text x="869" y="430" class="v">148K</text><text x="732" y="527" class="t teal">● Passed 61%</text><text x="845" y="527" class="t gold">● Review 26%</text><text x="968" y="527" class="t red">● Retry 13%</text>
  <rect x="1130" y="274" width="436" height="278" rx="18" class="c" filter="url(#s9)"/><text x="1154" y="312" class="l">Activity by format</text><g class="m t"><text x="1154" y="366">Timed simulation</text><text x="1154" y="419">Practice set</text><text x="1154" y="472">Video quiz</text><text x="1154" y="525">Flash review</text></g><g fill="#e5ecea"><rect x="1286" y="350" width="244" height="23" rx="11"/><rect x="1286" y="403" width="244" height="23" rx="11"/><rect x="1286" y="456" width="244" height="23" rx="11"/><rect x="1286" y="509" width="244" height="23" rx="11"/></g><g class="blue"><rect x="1286" y="350" width="218" height="23" rx="11"/><rect x="1286" y="403" width="184" height="23" rx="11"/><rect x="1286" y="456" width="132" height="23" rx="11"/><rect x="1286" y="509" width="88" height="23" rx="11"/></g>
  <rect x="34" y="570" width="488" height="296" rx="18" class="c" filter="url(#s9)"/><text x="58" y="608" class="l">Average score by topic</text><g class="m t"><text x="58" y="655">Quantitative</text><text x="58" y="707">Verbal</text><text x="58" y="759">Logic</text><text x="58" y="811">Civic literacy</text></g><g fill="#e5ecea"><rect x="170" y="639" width="310" height="24" rx="12"/><rect x="170" y="691" width="310" height="24" rx="12"/><rect x="170" y="743" width="310" height="24" rx="12"/><rect x="170" y="795" width="310" height="24" rx="12"/></g><g class="gold"><rect x="170" y="639" width="252" height="24" rx="12"/><rect x="170" y="691" width="236" height="24" rx="12"/><rect x="170" y="743" width="218" height="24" rx="12"/><rect x="170" y="795" width="196" height="24" rx="12"/></g>
  <rect x="540" y="570" width="1026" height="296" rx="18" class="c" filter="url(#s9)"/><text x="564" y="608" class="l">Learning cohort progress</text><g class="m t"><text x="564" y="650">COHORT</text><text x="840" y="650">LEARNERS</text><text x="1020" y="650">SESSIONS</text><text x="1200" y="650">COMPLETION</text><text x="1405" y="650">SCORE</text></g><g class="t"><text x="564" y="699">Momentum Group A</text><text x="840" y="699">8,420</text><text x="1020" y="699">12.8</text><text x="1200" y="699">84%</text><text x="1405" y="699">78.6</text><text x="564" y="749">Momentum Group B</text><text x="840" y="749">7,180</text><text x="1020" y="749">10.4</text><text x="1200" y="749">78%</text><text x="1405" y="749">73.8</text><text x="564" y="799">Steady Group</text><text x="840" y="799">6,940</text><text x="1020" y="799">8.9</text><text x="1200" y="799">71%</text><text x="1405" y="799">69.4</text><text x="564" y="849">Starter Group</text><text x="840" y="849">5,620</text><text x="1020" y="849">5.6</text><text x="1200" y="849">58%</text><text x="1405" y="849">64.2</text></g><g class="g"><path d="M564 666H1538M564 716H1538M564 766H1538M564 816H1538"/></g>
</svg>
