<svg xmlns="http://www.w3.org/2000/svg" width="1600" height="900" viewBox="0 0 1600 900" role="img" aria-labelledby="title desc">
  <title id="title">Live class monitoring dashboard demo</title>
  <desc id="desc">Sanitized vector preview with dummy schedules, mentor, PIC monitoring, and class status data.</desc>
  <defs><linearGradient id="bg" x1="0" x2="1" y1="0" y2="1"><stop stop-color="#dfe1ff"/><stop offset=".55" stop-color="#eff2f8"/><stop offset="1" stop-color="#dff8fc"/></linearGradient><filter id="shadow"><feDropShadow dx="0" dy="10" stdDeviation="14" flood-color="#26325a" flood-opacity=".12"/></filter></defs>
  <style>text{font-family:Inter,Arial,sans-serif;fill:#172033}.muted{fill:#66758c}.label{font-size:13px;font-weight:800;letter-spacing:1px}.num{font-size:30px;font-weight:800}.card{fill:#ffffffdf;stroke:#fff}.small{font-size:14px}.body{font-size:16px}.bold{font-weight:700}.demo{font-size:14px;font-weight:800;letter-spacing:2px;fill:#5146e5}</style>
  <rect width="1600" height="900" fill="url(#bg)"/>
  <g transform="translate(80 30)" filter="url(#shadow)"><rect class="card" width="1440" height="106" rx="18"/><text x="24" y="30" class="demo">GOOGLE SHEETS DATABASE</text><text x="24" y="64" font-size="27" font-weight="800">Dashboard Monitoring Live Class</text><text x="24" y="88" class="muted small">Kelola jadwal, mentor, status PIC, dan tindak lanjut kelas dalam satu workspace.</text><rect x="1110" y="29" width="138" height="44" rx="22" fill="#fff" stroke="#dfe3ec"/><text x="1179" y="57" class="small bold" text-anchor="middle">Muat Ulang</text><rect x="1262" y="29" width="152" height="44" rx="22" fill="#5a50e8"/><text x="1338" y="57" fill="#fff" class="small bold" text-anchor="middle">Tambah Sesi</text></g>
  <rect x="1260" y="151" width="260" height="32" rx="16" fill="#e9e7ff"/><text x="1390" y="172" class="demo" text-anchor="middle">SANITIZED DEMO DATA</text>
  <g transform="translate(80 157)"><g filter="url(#shadow)"><rect class="card" width="185" height="112" rx="16"/><text x="20" y="32" class="muted label">TOTAL SESI</text><text x="20" y="72" class="num">36</text><text x="20" y="96" class="muted small">jadwal demo</text></g><g transform="translate(201)" filter="url(#shadow)"><rect class="card" width="185" height="112" rx="16"/><text x="20" y="32" class="muted label">MINGGU INI</text><text x="20" y="72" class="num">8</text><text x="20" y="96" class="muted small">kelas berjalan</text></g><g transform="translate(402)" filter="url(#shadow)"><rect class="card" width="185" height="112" rx="16"/><text x="20" y="32" class="muted label">BELUM DIPANTAU</text><text x="20" y="72" class="num" fill="#e07a10">5</text><text x="20" y="96" class="muted small">butuh PIC</text></g><g transform="translate(603)" filter="url(#shadow)"><rect class="card" width="185" height="112" rx="16"/><text x="20" y="32" class="muted label">MENTOR AKTIF</text><text x="20" y="72" class="num">12</text><text x="20" y="96" class="muted small">nama dianonimkan</text></g><g transform="translate(804)" filter="url(#shadow)"><rect class="card" width="185" height="112" rx="16"/><text x="20" y="32" class="muted label">DATA PIC TERISI</text><text x="20" y="72" class="num" fill="#13a86f">86%</text><text x="20" y="96" class="muted small">31 dari 36</text></g><g transform="translate(1005)" filter="url(#shadow)"><rect class="card" width="185" height="112" rx="16"/><text x="20" y="32" class="muted label">PREMIUM / GRATIS</text><text x="20" y="72" class="num">28 / 8</text><text x="20" y="96" class="muted small">komposisi akses</text></g><g transform="translate(1206)" filter="url(#shadow)"><rect class="card" width="174" height="112" rx="16"/><text x="20" y="32" class="muted label">RATA-RATA</text><text x="20" y="72" class="num">412</text><text x="20" y="96" class="muted small">penonton</text></g></g>
  <g transform="translate(80 292)" filter="url(#shadow)"><rect class="card" width="1440" height="190" rx="18"/><text x="24" y="38" font-size="20" font-weight="800">Filter Data</text><text x="24" y="60" class="muted small">Cari jadwal tertentu tanpa membuka spreadsheet.</text><g transform="translate(24 82)"><text class="muted label" y="0">CARI</text><rect y="14" width="300" height="47" rx="10" fill="#fff" stroke="#d9deea"/><text x="16" y="44" class="muted body">Cari mentor, materi, platform...</text><text x="326" y="0" class="muted label">TANGGAL</text><rect x="326" y="14" width="250" height="47" rx="10" fill="#fff" stroke="#d9deea"/><text x="342" y="44" class="muted body">01 Jul — 31 Jul</text><text x="602" y="0" class="muted label">MATERI</text><rect x="602" y="14" width="250" height="47" rx="10" fill="#fff" stroke="#d9deea"/><text x="618" y="44" class="body">Semua Materi</text><text x="878" y="0" class="muted label">PLATFORM</text><rect x="878" y="14" width="230" height="47" rx="10" fill="#fff" stroke="#d9deea"/><text x="894" y="44" class="body">Semua Platform</text><text x="1134" y="0" class="muted label">STATUS KELAS</text><rect x="1134" y="14" width="258" height="47" rx="10" fill="#fff" stroke="#d9deea"/><text x="1150" y="44" class="body">Semua Status</text></g></g>
  <g transform="translate(80 506)" filter="url(#shadow)"><rect class="card" width="1440" height="344" rx="18"/><text x="24" y="42" font-size="20" font-weight="800">Jadwal Live Class</text><text x="24" y="64" class="muted small">36 data ditampilkan · identitas menggunakan nama demo</text><g transform="translate(930 20)"><rect width="235" height="42" rx="21" fill="#f2f3f8"/><text x="34" y="27" fill="#5146e5" class="small bold">Tabel</text><text x="99" y="27" class="muted small bold">Kalender</text><text x="176" y="27" class="muted small bold">Analitik</text><rect x="1180" y="0" width="122" height="42" rx="21" fill="#5a50e8"/><text x="1241" y="27" fill="#fff" class="small bold" text-anchor="middle">Ekspor CSV</text></g><path d="M0 84h1440" stroke="#dfe4ed"/><g class="muted label"><text x="24" y="112">HARI / TANGGAL</text><text x="245" y="112">PROGRAM</text><text x="430" y="112">MATERI</text><text x="665" y="112">WAKTU</text><text x="775" y="112">MENTOR</text><text x="1000" y="112">STATUS PIC</text><text x="1248" y="112">AKSI</text></g><g transform="translate(0 128)"><rect width="1440" height="78" fill="#f7f8fc"/><text x="24" y="29" class="body bold">Rabu, 22 Juli</text><text x="24" y="53" class="muted small">Selesai</text><rect x="245" y="13" width="112" height="28" rx="14" fill="#2c59d9"/><text x="301" y="32" fill="#fff" class="small bold" text-anchor="middle">Product A</text><text x="430" y="29" class="body bold">Tes Potensi</text><text x="430" y="52" class="muted small">Submateri demo</text><text x="665" y="37" class="body">19.00</text><text x="775" y="29" class="body">Mentor A</text><text x="775" y="52" class="muted small">WA tersedia</text><rect x="1000" y="15" width="98" height="28" rx="14" fill="#dff8ec"/><text x="1049" y="34" fill="#168657" class="small bold" text-anchor="middle">Terisi</text><rect x="1248" y="13" width="92" height="34" rx="17" fill="#fff" stroke="#d9deea"/><text x="1294" y="35" class="small bold" text-anchor="middle">Detail</text></g><g transform="translate(0 214)"><text x="24" y="29" class="body bold">Kamis, 23 Juli</text><text x="24" y="53" class="muted small">Terjadwal</text><rect x="245" y="13" width="112" height="28" rx="14" fill="#df7900"/><text x="301" y="32" fill="#fff" class="small bold" text-anchor="middle">Product B</text><text x="430" y="29" class="body bold">Wawasan Umum</text><text x="430" y="52" class="muted small">Submateri demo</text><text x="665" y="37" class="body">20.00</text><text x="775" y="29" class="body">Mentor B</text><text x="775" y="52" class="muted small">WA tersedia</text><rect x="1000" y="15" width="132" height="28" rx="14" fill="#fff0dd"/><text x="1066" y="34" fill="#c56b00" class="small bold" text-anchor="middle">Belum Dipantau</text><rect x="1248" y="13" width="92" height="34" rx="17" fill="#fff" stroke="#d9deea"/><text x="1294" y="35" class="small bold" text-anchor="middle">Isi PIC</text></g></g>
</svg>
